<mxfile host="app.diagrams.net" modified="2024-06-10T19:26:01.859Z" agent="Mozilla/5.0 (Windows NT 10.0; Win64; x64) AppleWebKit/537.36 (KHTML, like Gecko) Chrome/125.0.0.0 Safari/537.36 Edg/125.0.0.0" version="24.3.0" etag="Ma_n-8BH1U54lHPJ0F9U" type="github">
  <diagram name="Page-1" id="2ZhSHI1pgSmswaPinYpO">
    <mxGraphModel>
      <root>
        <mxCell id="0" />
        <mxCell id="1" parent="0" />
      </root>
    </mxGraphModel>
  </diagram>
</mxfile>
